<?xml version="1.0" encoding="utf-8"?>
<?xml-stylesheet type="text/xsl" href="rss1.xsl"?>
<rss version="2.0" xmlns:atom="http://www.w3.org/2005/Atom" xmlns:content="http://purl.org/rss/1.0/modules/content/" xmlns:dc="http://purl.org/dc/elements/1.1/" xmlns:media="http://search.yahoo.com/mrss/">
<channel>
 <title>Getty</title>
 <link>http://www.gettyimg.com/</link>
 <atom:link href="http://www.gettyimg.com/" rel="self" type="application/rss+xml" />

 
                <item>
                <title><![CDATA[【Singles (lossless)】ALAC - LINKIN PARK - Friendly Fire [Apple LAC | 24bit/48kHz | 2 304 kb/s | Apple Music Quality]]]></title>
                <link><![CDATA[https://sharemania.us/threads/linkin-park-friendly-fire-apple-lac-24bit-48khz-2-304-kb-s-apple-music-quality.238314/]]></link>
                <description><![CDATA[<article>
<blockquote class="messageText SelectQuoteContainer ugc baseHtml">
<img src="https://a5.mzstatic.com/us/r1000/0/Music126/v4/b4/c9/96/b4c9968a-652e-c15f-75c7-b2c592a368cf/093624846031.jpg" class="bbCodeImage LbImage" alt="[​IMG]" data-url="https://a5.mzstatic.com/us/r1000/0/Music126/v4/b4/c9/96/b4c9968a-652e-c15f-75c7-b2c592a368cf/093624846031.jpg" style=""> <br>
<br>
<span style="font-family: 'Book Antiqua'"><b><b>Artist</b>: </b>LINKIN PARK<br>
<b><b>Single</b>: </b>Friendly Fire<br>
<b><b>Release</b>: </b>23/02/2024</span><br>
<b><span style="font-family: 'Book Antiqua'"><b>Format</b>: .</span></b><span style="font-family: 'Book Antiqua'">m4a Apple Lossless Audio Codec<br>
<b><b>Sample Rate</b>: </b>2 304 Kbps, 48.000 kHz - 2.0ch<br>
<b><b>Quality</b>: </b>Hi-Res Quality, Lossless Audio, Apple Core Media Audio</span><br>
<b><span style="font-family: 'Book Antiqua'"><b>Source</b>: <a href="https://music.apple.com/jp/album/papercuts/1730806135" target="_blank" class="externalLink" rel="nofollow">Apple Music</a></span></b><br>
<br>
<div class="bbCodeBlock bbCodeVfcHH HiddenContent">
<div class="attribution type">Hidden Content:</div>
<blockquote>You must reply before you can see the hidden data contained here.</blockquote>
</div>
<div class="messageTextEndMarker">&nbsp;</div>
</blockquote>
</article>]]></description>
                <author><![CDATA[SonMaxime]]></author>
                </item>

                
                <item>
                <title><![CDATA[【HD Live Performances】FEED - NFL Super Bowls S00E58 Usher (2024) 1080p HLG HDTV Backhaul FLAC 5.1 HEVC-TrollHD]]></title>
                <link><![CDATA[https://sharemania.us/threads/nfl-super-bowls-s00e58-usher-2024-1080p-hlg-hdtv-backhaul-flac-5-1-hevc-trollhd.238313/]]></link>
                <description><![CDATA[<article>
<blockquote class="messageText SelectQuoteContainer ugc baseHtml">
<div style="text-align: center"><b><span style="color: rgb(255, 0, 0)">NFL Super Bowls S00E58 Usher (2024) 1080p HLG HDTV Backhaul FLAC 5.1 HEVC-TrollHD</span></b><br>
<br>
<img src="https://images2.imgbox.com/c4/15/TelMYZrs_o.jpg" class="bbCodeImage LbImage" alt="[​IMG]" data-url="https://images2.imgbox.com/c4/15/TelMYZrs_o.jpg" style=""><br>
<br>
<div class="ToggleTriggerAnchor bbCodeSpoilerContainer">
<button type="button" class="button bbCodeSpoilerButton ToggleTrigger Tooltip JsOnly" data-target="> .SpoilerTarget"><span>Spoiler: <span class="SpoilerTitle">MediaInfo</span></span></button>
<div class="SpoilerTarget bbCodeSpoilerText">Format : Matroska<br>
Format version : Version 4<br>
File size : 3.53 GiB<br>
Duration : 13 min 32 s<br>
Overall bit rate mode : Variable<br>
Overall bit rate : 37.4 Mb/s<br>
Encoded date : UTC 2024-02-22 16:17:34<br>
Writing application : mkvmerge v77.0 ('Elemental') 64-bit<br>
Writing library : libebml v1.4.4 + libmatroska v1.7.1<br>
<br>
Video<br>
ID : 1<br>
Format : HEVC<br>
Format/Info : High Efficiency Video Coding<br>
Format profile : Format Range@L4.1@High<br>
Codec ID : V_MPEGH/ISO/HEVC<br>
Duration : 13 min 32 s<br>
Bit rate : 35.3 Mb/s<br>
Width : 1 920 pixels<br>
Height : 1 080 pixels<br>
Display aspect ratio : 16:9<br>
Frame rate mode : Constant<br>
Frame rate : 59.940 (60000/1001) FPS<br>
Standard : Component<br>
Color space : YUV<br>
Chroma subsampling : 4:2:2 (Type 0)<br>
Bit depth : 10 bits<br>
Bits/(Pixel*Frame) : 0.284<br>
Stream size : 3.34 GiB (94%)<br>
Default : Yes<br>
Forced : No<br>
Color range : Limited<br>
Color primaries : BT.2020<br>
Transfer characteristics : HLG<br>
Matrix coefficients : BT.2020 non-constant<br>
<br>
Audio<br>
ID : 2<br>
Format : FLAC<br>
Format/Info : Free Lossless Audio Codec<br>
Codec ID : A_FLAC<br>
Duration : 13 min 32 s<br>
Bit rate mode : Variable<br>
Bit rate : 2 050 kb/s<br>
Channel(s) : 6 channels<br>
Channel layout : L R C LFE Ls Rs<br>
Sampling rate : 48.0 kHz<br>
Frame rate : 11.720 FPS (4096 SPF)<br>
Bit depth : 16 bits<br>
Compression mode : Lossless<br>
Stream size : 198 MiB (5%)<br>
Writing library : libFLAC 1.3.2 (UTC 2019-08-04)<br>
Language : English<br>
Default : Yes<br>
Forced : No</div>
</div><br>
<div class="bbCodeBlock bbCodeVfcHH HiddenContent">
<div class="attribution type">Hidden Content:</div>
<blockquote>You must either reply or click 'Like' to see the hidden information contained here.</blockquote>
</div></div>
<div class="messageTextEndMarker">&nbsp;</div>
</blockquote>
</article>]]></description>
                <author><![CDATA[melodie]]></author>
                </item>

                
                <item>
                <title><![CDATA[【HD Live Performances】WEB-DL - Jennifer Lopez - Apple Music Live 2024 2160p WEB-DL DD+5.1 HEVC-FLUX]]></title>
                <link><![CDATA[https://sharemania.us/threads/jennifer-lopez-apple-music-live-2024-2160p-web-dl-dd-5-1-hevc-flux.238311/]]></link>
                <description><![CDATA[<article>
<blockquote class="messageText SelectQuoteContainer ugc baseHtml">
Thank you!
<div class="messageTextEndMarker">&nbsp;</div>
</blockquote>
</article>]]></description>
                <author><![CDATA[Plazik]]></author>
                </item>

                
                <item>
                <title><![CDATA[【Cinema Center】SERIES - 101 Dalmatians: The Series (1997) 1080p x265 EDGE2020]]></title>
                <link><![CDATA[https://sharemania.us/threads/101-dalmatians-the-series-1997-1080p-x265-edge2020.238315/]]></link>
                <description><![CDATA[<article>
<blockquote class="messageText SelectQuoteContainer ugc baseHtml">
<a href="https://imgbox.com/BwKZZmdT" target="_blank" class="externalLink" rel="nofollow"><img src="https://thumbs2.imgbox.com/dd/50/BwKZZmdT_t.png" class="bbCodeImage LbImage" alt="[​IMG]" data-url="https://thumbs2.imgbox.com/dd/50/BwKZZmdT_t.png"></a> <a href="https://imgbox.com/0QSD7wvI" target="_blank" class="externalLink" rel="nofollow"><img src="https://thumbs2.imgbox.com/2a/a2/0QSD7wvI_t.png" class="bbCodeImage LbImage" alt="[​IMG]" data-url="https://thumbs2.imgbox.com/2a/a2/0QSD7wvI_t.png"></a> <a href="https://imgbox.com/eAdckO7H" target="_blank" class="externalLink" rel="nofollow"><img src="https://thumbs2.imgbox.com/0c/4b/eAdckO7H_t.png" class="bbCodeImage LbImage" alt="[​IMG]" data-url="https://thumbs2.imgbox.com/0c/4b/eAdckO7H_t.png"></a><br>
SDR<br>
<div class="ToggleTriggerAnchor bbCodeSpoilerContainer">
<button type="button" class="button bbCodeSpoilerButton ToggleTrigger Tooltip JsOnly" data-target="> .SpoilerTarget"><span>Spoiler: <span class="SpoilerTitle">Mediainfo</span></span></button>
<div class="SpoilerTarget bbCodeSpoilerText">
<div class="bbCodeBlock bbCodeCode">
<div class="type">Code:</div>
<pre>General
Unique ID                                : 195429477733821377277551287921051686069 (0x9306592B643CA64DFE82951F5513D4B5)
Complete name                            : Apple.Music.Live.Jennifer.Lopez.2024.2160p.ATVP.WEB-DL.DDP5.1.Atmos.H.265-FLUX.mkv
Format                                   : Matroska
Format version                           : Version 4
File size                                : 10.4 GiB
Duration                                 : 1 h 10 min
Overall bit rate                         : 21.0 Mb/s
Writing application                      : mkvmerge v79.0 ('Funeral Pyres') 64-bit
Writing library                          : libebml v1.4.4 + libmatroska v1.7.1

Video
ID                                       : 1
Format                                   : HEVC
Format/Info                              : High Efficiency Video Coding
Format profile                           : Main 10@L5@High
Codec ID                                 : V_MPEGH/ISO/HEVC
Duration                                 : 1 h 10 min
Bit rate                                 : 20.2 Mb/s
Width                                    : 3 840 pixels
Height                                   : 2 160 pixels
Display aspect ratio                     : 16:9
Frame rate mode                          : Constant
Frame rate                               : 23.976 (24000/1001) FPS
Color space                              : YUV
Chroma subsampling                       : 4:2:0
Bit depth                                : 10 bits
Bits/(Pixel*Frame)                       : 0.102
Stream size                              : 9.99 GiB (96%)
Language                                 : English
Default                                  : Yes
Forced                                   : No
Color range                              : Limited
Color primaries                          : BT.709
Transfer characteristics                 : BT.709
Matrix coefficients                      : BT.709

Audio
ID                                       : 2
Format                                   : E-AC-3 JOC
Format/Info                              : Enhanced AC-3 with Joint Object Coding
Commercial name                          : Dolby Digital Plus with Dolby Atmos
Codec ID                                 : A_EAC3
Duration                                 : 1 h 10 min
Bit rate mode                            : Constant
Bit rate                                 : 768 kb/s
Channel(s)                               : 6 channels
Channel layout                           : L R C LFE Ls Rs
Sampling rate                            : 48.0 kHz
Frame rate                               : 31.250 FPS (1536 SPF)
Compression mode                         : Lossy
Stream size                              : 389 MiB (4%)
Language                                 : English
Service kind                             : Complete Main
Default                                  : Yes
Forced                                   : No
Complexity index                         : 16
Number of dynamic objects                : 15
Bed channel count                        : 1 channel
Bed channel configuration                : LFE

Text #1
ID                                       : 3
Format                                   : UTF-8
Codec ID                                 : S_TEXT/UTF8
Codec ID/Info                            : UTF-8 Plain Text
Duration                                 : 1 h 9 min
Bit rate                                 : 24 b/s
Count of elements                        : 393
Stream size                              : 12.6 KiB (0%)
Language                                 : English
Default                                  : No
Forced                                   : No

Text #2
ID                                       : 4
Format                                   : UTF-8
Codec ID                                 : S_TEXT/UTF8
Codec ID/Info                            : UTF-8 Plain Text
Duration                                 : 1 h 10 min
Bit rate                                 : 31 b/s
Count of elements                        : 487
Stream size                              : 16.1 KiB (0%)
Title                                    : SDH
Language                                 : English
Default                                  : No
Forced                                   : No

Text #3
ID                                       : 5
Format                                   : UTF-8
Codec ID                                 : S_TEXT/UTF8
Codec ID/Info                            : UTF-8 Plain Text
Duration                                 : 1 h 10 min
Bit rate                                 : 20 b/s
Count of elements                        : 394
Stream size                              : 10.7 KiB (0%)
Language                                 : French
Default                                  : No
Forced                                   : No

Menu
00:00:00.000                             : en:Studio Logo / en:Skip
00:00:06.177                             : en:Scene 01</pre>
</div></div>
</div>
<div class="bbCodeBlock bbCodeVfcHH HiddenContent">
<div class="attribution type">Hidden Content:</div>
<blockquote>You must reply before you can see the hidden data contained here.</blockquote>
</div>
<div class="messageTextEndMarker">&nbsp;</div>
</blockquote>
</article>]]></description>
                <author><![CDATA[TeamK9]]></author>
                </item>

                
                <item>
                <title><![CDATA[【Music Videos】Mariah Carey - Pide Mega Mix '08 (DJ DefClub Vs DJ Chris Combs Mix) (2008) [mpg] RARE Video]]></title>
                <link><![CDATA[https://sharemania.us/threads/mariah-carey-pide-mega-mix-08-dj-defclub-vs-dj-chris-combs-mix-2008-mpg-rare-video.238312/]]></link>
                <description><![CDATA[<article>
<blockquote class="messageText SelectQuoteContainer ugc baseHtml">
AMAZING<br>
thanks
<div class="messageTextEndMarker">&nbsp;</div>
</blockquote>
</article>]]></description>
                <author><![CDATA[Fan Made]]></author>
                </item>

                </channel></rss>